<?xml version="1.0" encoding="UTF-8" standalone="no"?>
<svg
   xmlns:dc="http://purl.org/dc/elements/1.1/"
   xmlns:cc="http://creativecommons.org/ns#"
   xmlns:rdf="http://www.w3.org/1999/02/22-rdf-syntax-ns#"
   xmlns:svg="http://www.w3.org/2000/svg"
   xmlns="http://www.w3.org/2000/svg"
   xmlns:xlink="http://www.w3.org/1999/xlink"
   xmlns:sodipodi="http://sodipodi.sourceforge.net/DTD/sodipodi-0.dtd"
   xmlns:inkscape="http://www.inkscape.org/namespaces/inkscape"
   width="44.549149mm"
   height="41.916157mm"
   viewBox="0 0 44.549149 41.916157"
   version="1.1"
   id="svg8"
   inkscape:version="1.0 (4035a4fb49, 2020-05-01)"
   sodipodi:docname="coral.svg">
  <defs
     id="defs2">
    <linearGradient
       inkscape:collect="always"
       id="linearGradient4591">
      <stop
         style="stop-color:#800080;stop-opacity:1;"
         offset="0"
         id="stop4587" />
      <stop
         style="stop-color:#ff7f2a;stop-opacity:1"
         offset="1"
         id="stop4589" />
    </linearGradient>
    <linearGradient
       inkscape:collect="always"
       xlink:href="#linearGradient4591"
       id="linearGradient4593"
       x1="145.80432"
       y1="203.2567"
       x2="153.68022"
       y2="162.48817"
       gradientUnits="userSpaceOnUse" />
  </defs>
  <sodipodi:namedview
     fit-margin-bottom="0"
     fit-margin-right="0"
     fit-margin-left="0"
     fit-margin-top="0"
     id="base"
     pagecolor="#ffffff"
     bordercolor="#666666"
     borderopacity="1.0"
     inkscape:pageopacity="0.0"
     inkscape:pageshadow="2"
     inkscape:zoom="3.959798"
     inkscape:cx="-21.050634"
     inkscape:cy="114.64896"
     inkscape:document-units="mm"
     inkscape:current-layer="layer1"
     inkscape:document-rotation="0"
     showgrid="false"
     inkscape:window-width="2560"
     inkscape:window-height="1361"
     inkscape:window-x="-9"
     inkscape:window-y="-9"
     inkscape:window-maximized="1" />
  <metadata
     id="metadata5">
    <rdf:RDF>
      <cc:Work
         rdf:about="">
        <dc:format>image/svg+xml</dc:format>
        <dc:type
           rdf:resource="http://purl.org/dc/dcmitype/StillImage" />
        <dc:title></dc:title>
      </cc:Work>
    </rdf:RDF>
  </metadata>
  <g
     transform="translate(-128.4691,-162.34252)"
     inkscape:label="Ebene 1"
     inkscape:groupmode="layer"
     id="layer1">
    <g
       id="g4561">
      <path
         id="path4509"
         d="m 147.89284,204.04092 c 1.31466,-0.49983 4.66144,-4.05283 6.67403,-7.08525 1.08654,-1.63711 2.10344,-2.97657 2.25979,-2.97657 0.15634,0 0.67673,0.24256 1.15641,0.53902 1.8877,1.16666 7.59471,1.73311 9.4886,0.9418 1.16599,-0.48719 1.6649,-1.82555 1.20264,-3.22621 -0.43248,-1.31043 -1.45854,-1.69419 -4.52972,-1.69419 -1.90788,0 -2.67938,-0.1166 -3.54541,-0.53584 -1.97953,-0.95827 -2.05408,-1.15789 -1.337,-3.57983 0.3423,-1.15612 0.95041,-3.248 1.35136,-4.64861 0.729,-2.54657 0.729,-2.54657 2.48088,-2.67632 0.96354,-0.0714 2.60303,-0.38536 3.64333,-0.6978 1.5859,-0.47629 2.14547,-0.8133 3.46389,-2.08618 0.86485,-0.83497 1.64329,-1.81578 1.72987,-2.17959 0.0866,-0.3638 0.39917,-1.47827 0.69464,-2.4766 0.48389,-1.63497 0.49963,-1.90512 0.15852,-2.7215 -0.25831,-0.61822 -0.6826,-1.03333 -1.33463,-1.30577 -0.87352,-0.36498 -1.03971,-0.35846 -1.92775,0.0757 -0.83826,0.40979 -1.03745,0.69325 -1.44937,2.06258 -0.94717,3.14861 -1.61261,3.80026 -4.11215,4.02691 -1.62801,0.14763 -1.62801,0.14763 -1.62986,-2.07193 -0.002,-2.46004 -0.73491,-5.97594 -1.59844,-7.6686 -0.36878,-0.72285 -0.85147,-1.20027 -1.47837,-1.46221 -0.84299,-0.35222 -1.0224,-0.34409 -1.90127,0.0862 -1.4305,0.7003 -1.59646,1.47212 -0.89314,4.15371 0.99018,3.77535 0.70661,9.03658 -0.74262,13.77813 -0.26783,0.87629 -0.86588,2.8434 -1.329,4.37137 -0.46311,1.52797 -1.12185,3.47009 -1.46385,4.31582 -0.84014,2.07754 -3.02548,5.73835 -3.42553,5.73835 -0.17776,0 -0.52747,-0.53487 -0.77713,-1.18859 -0.26119,-0.68392 -1.45154,-2.34097 -2.80344,-3.90261 -2.16394,-2.49964 -2.81586,-3.64005 -2.08087,-3.64005 0.49164,0 4.19163,-4.0159 5.15327,-5.59326 2.32775,-3.81814 2.48486,-7.37377 0.36522,-8.26501 -1.84889,-0.7774 -3.24672,0.36015 -3.66807,2.98506 -0.15388,0.95866 -0.54751,2.10762 -0.90644,2.64583 -0.9635,1.44474 -3.40094,3.76674 -3.7952,3.61545 -0.50428,-0.19351 -0.46579,-5.14765 0.0555,-7.14917 0.34781,-1.33533 1.18623,-3.15411 3.62227,-7.85781 0.46129,-0.8907 0.46893,-1.04056 0.0982,-1.92775 -0.27916,-0.66811 -0.68774,-1.08138 -1.33751,-1.35287 -1.93126,-0.80694 -3.02199,0.3269 -5.68303,5.90769 -0.9863,2.06849 -1.41051,2.30907 -2.31921,1.31527 -0.90342,-0.98802 -1.41724,-2.25078 -1.8398,-4.52152 -0.29918,-1.60767 -0.5773,-2.34506 -1.08883,-2.88681 -0.95333,-1.00964 -2.21655,-0.99186 -3.25421,0.0458 -0.66244,0.66244 -0.77295,0.97561 -0.77026,2.18282 0.004,1.88402 0.57128,3.921 1.72743,6.20506 1.06919,2.11226 2.01786,3.13343 3.95798,4.26045 1.32291,0.76848 1.32291,0.76848 1.48053,4.05827 0.13064,2.72682 0.27805,3.58124 0.86142,4.99283 1.09357,2.64612 4.2012,7.38269 5.96398,9.09013 2.13105,2.06415 2.55482,3.49886 2.01711,6.82903 -0.25231,1.56263 0.11393,2.25293 1.53841,2.8997 1.31892,0.59884 1.06484,0.56424 1.87675,0.25555 z"
         style="fill:url(#linearGradient4593);fill-opacity:1;fill-rule:evenodd;stroke:none;stroke-width:0.265;stroke-miterlimit:4;stroke-dasharray:none;stroke-opacity:1" />
    </g>
  </g>
</svg>
